<svg width="49" height="15" viewBox="0 0 49 15" fill="none" xmlns="http://www.w3.org/2000/svg">
<path opacity="0.2" d="M15.6016 3.82812C16.6497 3.82812 17.5547 4.04948 18.3164 4.49219C19.0781 4.9349 19.6673 5.56641 20.084 6.38672C20.5007 7.20703 20.709 8.18685 20.709 9.32617V9.3457C20.709 10.485 20.5007 11.4681 20.084 12.2949C19.6738 13.1152 19.0879 13.7467 18.3262 14.1895C17.5645 14.6322 16.6562 14.8535 15.6016 14.8535C14.5534 14.8535 13.6452 14.6322 12.877 14.1895C12.1152 13.7467 11.526 13.1152 11.1094 12.2949C10.6992 11.4681 10.4941 10.485 10.4941 9.3457V9.32617C10.4941 8.19336 10.7025 7.2168 11.1191 6.39648C11.5358 5.56966 12.125 4.9349 12.8867 4.49219C13.6549 4.04948 14.5599 3.82812 15.6016 3.82812ZM24.2793 10.3516C24.2793 11.1589 24.4453 11.7708 24.7773 12.1875C25.1094 12.5977 25.6367 12.8027 26.3594 12.8027C26.7435 12.8027 27.082 12.7441 27.375 12.627C27.6745 12.5033 27.9251 12.3275 28.127 12.0996C28.3288 11.8717 28.4818 11.5983 28.5859 11.2793C28.6901 10.9603 28.7422 10.6055 28.7422 10.2148V4.04297H31.1738V14.6387H28.7422V13.0176H28.6055C28.4362 13.3952 28.2051 13.7207 27.9121 13.9941C27.6191 14.2676 27.2676 14.4792 26.8574 14.6289C26.4473 14.7786 25.985 14.8535 25.4707 14.8535C24.6829 14.8535 24.0189 14.6973 23.4785 14.3848C22.9382 14.0723 22.5312 13.623 22.2578 13.0371C21.9844 12.4447 21.8477 11.7318 21.8477 10.8984V4.04297H24.2793V10.3516ZM43.915 3.82812C44.7808 3.82814 45.5232 3.96486 46.1416 4.23828C46.7665 4.5052 47.2517 4.86983 47.5967 5.33203C47.9482 5.79425 48.1468 6.31514 48.1924 6.89453V6.93359H45.917L45.9072 6.89453C45.8291 6.5365 45.6174 6.23696 45.2725 5.99609C44.934 5.74872 44.4814 5.62503 43.915 5.625C43.5505 5.625 43.2314 5.68038 42.958 5.79102C42.6846 5.89517 42.4697 6.04497 42.3135 6.24023C42.1572 6.43555 42.0791 6.66667 42.0791 6.93359V6.94336C42.0791 7.14518 42.1312 7.32747 42.2354 7.49023C42.3395 7.64645 42.5056 7.78322 42.7334 7.90039C42.9678 8.01104 43.2738 8.112 43.6514 8.20312L45.3701 8.59375C46.4247 8.82812 47.1963 9.1732 47.6846 9.62891C48.1793 10.0846 48.4268 10.6999 48.4268 11.4746V11.4941C48.4268 12.1647 48.2314 12.7539 47.8408 13.2617C47.4567 13.763 46.926 14.1537 46.249 14.4336C45.5785 14.7135 44.8069 14.8535 43.9346 14.8535C43.0297 14.8535 42.2516 14.7233 41.6006 14.4629C40.9496 14.2025 40.4352 13.8411 40.0576 13.3789C39.6865 12.9102 39.4684 12.3698 39.4033 11.7578L39.3936 11.7188H41.8057L41.8154 11.7578C41.9326 12.1484 42.1703 12.4642 42.5283 12.7051C42.8864 12.9394 43.365 13.0566 43.9639 13.0566C44.3739 13.0566 44.7289 13.0013 45.0283 12.8906C45.3277 12.78 45.5622 12.6269 45.7314 12.4316C45.9007 12.2298 45.9854 11.9954 45.9854 11.7285V11.7188C45.9854 11.4063 45.8616 11.1458 45.6143 10.9375C45.3734 10.7292 44.9664 10.5599 44.3936 10.4297L42.665 10.0488C41.9945 9.8991 41.4378 9.69072 40.9951 9.42383C40.5524 9.15692 40.2204 8.82809 39.999 8.4375C39.7842 8.04688 39.6768 7.5944 39.6768 7.08008V7.07031C39.6768 6.42578 39.8558 5.86263 40.2139 5.38086C40.5719 4.89262 41.07 4.5117 41.708 4.23828C42.346 3.96489 43.0818 3.82812 43.915 3.82812ZM2.43164 5.70312H2.57812C2.83203 5.11719 3.2194 4.6582 3.74023 4.32617C4.26107 3.99414 4.90885 3.82812 5.68359 3.82812C6.46484 3.82812 7.12891 3.98763 7.67578 4.30664C8.22266 4.62565 8.63932 5.08464 8.92578 5.68359C9.21224 6.28255 9.35547 7.00195 9.35547 7.8418V14.6387H6.92383V8.38867C6.92383 7.56185 6.74479 6.93685 6.38672 6.51367C6.02865 6.09049 5.48828 5.87891 4.76562 5.87891C4.29036 5.87891 3.87695 5.98633 3.52539 6.20117C3.18034 6.41602 2.91016 6.71875 2.71484 7.10938C2.52604 7.49349 2.43164 7.94922 2.43164 8.47656V14.6387H0V0H2.43164V5.70312ZM37.9326 3.85742C38.1148 3.85742 38.2875 3.87046 38.4502 3.89648C38.6194 3.916 38.7595 3.93882 38.8701 3.96484V6.15234C38.6944 6.1068 38.5087 6.07421 38.3135 6.05469C38.1247 6.02866 37.926 6.01562 37.7178 6.01562C37.197 6.01565 36.7412 6.11656 36.3506 6.31836C35.9665 6.51367 35.667 6.79693 35.4521 7.16797C35.2438 7.53254 35.1396 7.97205 35.1396 8.48633V14.6387H32.708V4.04297H35.1396V5.71289H35.2764C35.4521 5.12701 35.7712 4.67122 36.2334 4.3457C36.6956 4.02021 37.2621 3.85745 37.9326 3.85742ZM15.6016 5.80078C15.0547 5.80078 14.5859 5.94076 14.1953 6.2207C13.8047 6.50065 13.5052 6.9043 13.2969 7.43164C13.0885 7.95247 12.9844 8.58398 12.9844 9.32617V9.3457C12.9844 10.0944 13.0885 10.7324 13.2969 11.2598C13.5052 11.7871 13.8047 12.1908 14.1953 12.4707C14.5859 12.7441 15.0547 12.8809 15.6016 12.8809C16.1549 12.8809 16.627 12.7409 17.0176 12.4609C17.4082 12.181 17.7077 11.7773 17.916 11.25C18.1243 10.7227 18.2285 10.0879 18.2285 9.3457V9.32617C18.2285 8.58398 18.1243 7.95247 17.916 7.43164C17.7077 6.9043 17.4082 6.50065 17.0176 6.2207C16.627 5.94076 16.1549 5.80078 15.6016 5.80078Z" fill="black"/>
</svg>
