<svg width="816" height="820" viewBox="0 0 816 820" fill="none" xmlns="http://www.w3.org/2000/svg">
<path d="M408 0C440.216 0 460.925 82.4174 472.474 149.814C473.928 158.302 491.961 158.041 493.127 149.509C500.874 92.7788 513.844 29 533 29C558.122 29 572.29 133.235 579.73 219.909C582.239 240.005 591.404 237.237 593.083 222.234C593.155 221.282 593.228 220.329 593.301 219.374C593.306 219.25 593.314 219.125 593.318 219C593.336 218.512 593.362 218.231 593.396 218.143C598.844 147.573 608.172 71 623 71C643.435 71 660 222.552 660 409.5C660 596.448 643.435 748 623 748C607.587 748 598.214 668.359 592.9 596.756C590.797 582.78 581.893 580.955 579.623 601.38L579.613 601.279C572.135 687.786 557.98 791 533 791C513.597 791 500.541 725.566 492.83 668.301C491.683 659.785 474.022 659.481 472.564 667.949C460.902 735.745 439.976 820 408 820C376.024 820 355.098 735.745 343.436 667.949C341.978 659.481 324.316 659.785 323.169 668.302C315.459 725.567 302.403 791 283 791C257.092 791 242.915 682.512 235.686 594.766C233.076 582.654 224.927 581.969 222.771 601.38L222.759 601.264C217.389 671.659 208.09 748 193 748C172.565 748 156 596.448 156 409.5C156 222.552 172.565 71 193 71C209.174 71 218.458 150.171 223.547 221.699C226.555 236.41 233.883 234.083 235.946 221.926C243.247 134.861 257.388 29 283 29C301.879 29 315.019 94.6952 322.894 152.042C324.062 160.553 341.668 160.792 343.1 152.321C354.562 84.4797 375.383 0 408 0ZM102 153C118.569 153 132 267.839 132 409.5C132 551.161 118.569 666 102 666C85.4315 666 72 551.161 72 409.5C72 267.839 85.4315 153 102 153ZM714 153C730.569 153 744 267.839 744 409.5C744 551.161 730.569 666 714 666C697.431 666 684 551.161 684 409.5C684 267.839 697.431 153 714 153ZM24 297C37.2548 297 48 347.592 48 410C48 472.408 37.2548 523 24 523C10.7452 523 0 472.408 0 410C0 347.592 10.7452 297 24 297ZM792 297C805.255 297 816 347.592 816 410C816 472.408 805.255 523 792 523C778.745 523 768 472.408 768 410C768 347.592 778.745 297 792 297Z" fill="white"/>
</svg>
