<svg width="80" height="100" viewBox="0 0 80 100" fill="none" xmlns="http://www.w3.org/2000/svg">
<g filter="url(#filter0_i_226_4984)">
<path d="M0 38.4C0 24.9587 0 18.2381 2.61584 13.1042C4.9168 8.58834 8.58834 4.9168 13.1042 2.61584C18.2381 0 24.9587 0 38.4 0H41.6C55.0413 0 61.7619 0 66.8958 2.61584C71.4117 4.9168 75.0832 8.58834 77.3842 13.1042C80 18.2381 80 24.9587 80 38.4V61.6C80 75.0413 80 81.7619 77.3842 86.8958C75.0832 91.4117 71.4117 95.0832 66.8958 97.3842C61.7619 100 55.0413 100 41.6 100H38.4C24.9587 100 18.2381 100 13.1042 97.3842C8.58834 95.0832 4.9168 91.4117 2.61584 86.8958C0 81.7619 0 75.0413 0 61.6V38.4Z" fill="url(#paint0_radial_226_4984)"/>
</g>
<defs>
<filter id="filter0_i_226_4984" x="0" y="0" width="80" height="102" filterUnits="userSpaceOnUse" color-interpolation-filters="sRGB">
<feFlood flood-opacity="0" result="BackgroundImageFix"/>
<feBlend mode="normal" in="SourceGraphic" in2="BackgroundImageFix" result="shape"/>
<feColorMatrix in="SourceAlpha" type="matrix" values="0 0 0 0 0 0 0 0 0 0 0 0 0 0 0 0 0 0 127 0" result="hardAlpha"/>
<feOffset dy="2"/>
<feGaussianBlur stdDeviation="4"/>
<feComposite in2="hardAlpha" operator="arithmetic" k2="-1" k3="1"/>
<feColorMatrix type="matrix" values="0 0 0 0 0 0 0 0 0 0 0 0 0 0 0 0 0 0 0.1 0"/>
<feBlend mode="normal" in2="shape" result="effect1_innerShadow_226_4984"/>
</filter>
<radialGradient id="paint0_radial_226_4984" cx="0" cy="0" r="1" gradientUnits="userSpaceOnUse" gradientTransform="translate(40.5 100) rotate(-90) scale(100 225.159)">
<stop stop-color="#F2E9DF"/>
<stop offset="0.25001" stop-color="#BAD6E1"/>
<stop offset="0.5" stop-color="#80C6E4"/>
<stop offset="0.745215" stop-color="#58BAE4"/>
<stop offset="1" stop-color="#45B6E6"/>
</radialGradient>
</defs>
</svg>
